<?xml version="1.0" encoding="UTF-8"?>
<svg width="115px" height="27px" viewBox="0 0 115 27" version="1.1" xmlns="http://www.w3.org/2000/svg" xmlns:xlink="http://www.w3.org/1999/xlink">
    <title>Group 2</title>
    <defs>
        <linearGradient x1="18.3854925%" y1="62.512714%" x2="90.6725076%" y2="84.1874309%" id="linearGradient-1">
            <stop stop-color="#2D2360" offset="0%"></stop>
            <stop stop-color="#B80D78" offset="18.0728515%"></stop>
            <stop stop-color="#E12787" offset="30.9631774%"></stop>
            <stop stop-color="#F07541" offset="44.3310719%"></stop>
            <stop stop-color="#EDBFAC" offset="52.1990569%"></stop>
            <stop stop-color="#E2DEDE" offset="59.0849724%"></stop>
            <stop stop-color="#AED3E3" offset="69.8328185%"></stop>
            <stop stop-color="#009DDF" offset="84.493707%"></stop>
            <stop stop-color="#1F46A8" offset="100%"></stop>
        </linearGradient>
    </defs>
    <g id="Page-1" stroke="none" stroke-width="1" fill="none" fill-rule="evenodd">
        <g id="galleryCat-Copy-14" transform="translate(-37.000000, -28.000000)">
            <g id="Group-2" transform="translate(37.000000, 29.000000)">
                <g id="Group-20" transform="translate(0.000000, 1.727880)" fill="#FFFFFF" fill-rule="nonzero">
                    <path d="M4.63337049,18.7198105 C5.32899716,18.7198105 5.93560018,18.6287166 6.45317955,18.4465286 C6.97075891,18.2643407 7.50697114,17.9248086 8.06181622,17.4279324 C8.24400416,17.2705883 8.40134829,17.0884004 8.5338486,16.8813686 C8.66634892,16.6743369 8.74916162,16.5501178 8.7822867,16.5087115 L8.7822867,16.5087115 L8.7822867,18.4216848 L12.2231543,18.4216848 L12.2231543,4.88180859 L8.63322384,4.88180859 L8.63322384,12.2479981 C8.63322384,13.1175315 8.51728606,13.8172988 8.28541051,14.3473001 C7.83822193,15.3244899 7.01009495,15.8130848 5.80102955,15.8130848 C4.85696478,15.8130848 4.22344763,15.4694121 3.90047811,14.7820667 C3.71829017,14.392847 3.6271962,13.8131581 3.6271962,13.043 L3.6271962,13.043 L3.6271962,4.88180859 L3.31487797e-14,4.88180859 L3.31487797e-14,13.043 C3.31487797e-14,14.5915975 0.194609842,15.7633972 0.583829526,16.5583991 C1.2794562,17.9993401 2.62930318,18.7198105 4.63337049,18.7198105 Z" id="Path-Copy-6"></path>
                    <path d="M19.7971312,1.63348048 C19.7971312,0.731334123 19.065797,-1.94470713e-13 18.1636507,-1.94749081e-13 L17.8406812,-1.94749081e-13 C16.9385348,-1.94583359e-13 16.2072007,0.731334123 16.2072007,1.63348048 C16.2072007,2.53562684 16.9385348,3.26696096 17.8406812,3.26696096 L18.1636507,3.26696096 C19.065797,3.26696096 19.7971312,2.53562684 19.7971312,1.63348048 Z" id="Path"></path>
                    <polygon id="Path" points="19.7971312 18.4216848 19.7971312 4.88180859 16.2072007 4.88180859 16.2072007 18.4216848"></polygon>
                </g>
                <path d="M62.6600023,6.28671906 C64.1423496,6.28671906 65.4590716,6.58070414 66.6101681,7.16867431 C67.7612646,7.75664447 68.3368128,8.86633463 68.3368128,10.4977448 L68.3368128,10.4977448 L68.3375029,16.9316014 C68.3398033,17.3157603 68.3478545,17.7631789 68.3616566,18.2738572 C68.3865005,18.7376083 68.4568912,19.0522966 68.572829,19.217922 C68.6887668,19.3835474 68.8626735,19.5201883 69.094549,19.6278448 L69.094549,19.6278448 L69.094549,20.1495648 L65.2437585,20.1495648 L65.1692271,19.9477089 C65.1009066,19.7489584 65.051219,19.5595244 65.0201642,19.3794067 C64.9787579,19.1392499 64.9456328,18.865968 64.920789,18.559561 C64.4321941,19.0895623 63.8690677,19.5408915 63.23141,19.9135486 C62.4695331,20.3524559 61.6082811,20.5719096 60.6476538,20.5719096 C59.4220258,20.5719096 58.4096406,20.2220259 57.610498,19.5222586 C56.8113555,18.8224913 56.4117842,17.8308093 56.4117842,16.5472124 C56.4117842,14.8826772 57.0535826,13.6777524 58.3371795,12.9324381 C59.0410874,12.5266559 60.0762461,12.2368115 61.4426557,12.0629048 L61.4426557,12.0629048 L62.6475804,11.9138419 L62.8841789,11.8818167 C63.4158623,11.8048268 63.8048879,11.711986 64.0512557,11.6032943 C64.5564131,11.3879813 64.8089919,11.0525899 64.8089919,10.59712 C64.8089919,10.042275 64.6164523,9.65926622 64.2313733,9.44809384 C63.8462942,9.23692146 63.2810976,9.13133527 62.5357833,9.13133527 C61.699375,9.13133527 61.1072642,9.33836701 60.7594509,9.75243051 C60.5110128,10.0588375 60.3453874,10.472901 60.2625747,10.994621 L60.2625747,10.994621 L56.8465509,10.994621 L56.8705321,10.702965 C56.9780736,9.649691 57.3013306,8.77386045 57.8403033,8.07547336 C58.7760868,6.8829705 60.3826531,6.28671906 62.6600023,6.28671906 Z M64.79657,13.5659553 L64.5722856,13.6977655 C64.4223026,13.7796581 64.2713994,13.8495888 64.1195761,13.9075577 C63.8918412,13.994511 63.5792233,14.0752534 63.1817223,14.1497848 L63.1817223,14.1497848 L62.3867204,14.2988477 L62.1461035,14.3440879 C61.525315,14.4675913 61.0713787,14.613996 60.7842947,14.783302 C60.2377309,15.1062715 59.964449,15.6072883 59.964449,16.2863524 C59.964449,16.8908851 60.1321447,17.3277221 60.4675361,17.5968634 C60.8029276,17.8660047 61.2107801,18.0005753 61.6910938,18.0005753 C62.4529706,18.0005753 63.1548082,17.776981 63.7966066,17.3297924 C64.438405,16.8826039 64.7717262,16.0668988 64.79657,14.8826772 L64.79657,14.8826772 L64.79657,13.5659553 Z" id="Combined-Shape-Copy" fill="#FFFFFF" fill-rule="nonzero"></path>
                <path d="M75.5505544,20.1495648 L75.5505544,12.820641 C75.5505544,11.9842327 75.6664922,11.2968873 75.8983678,10.7586048 C76.3455563,9.7400086 77.1695427,9.2307105 78.3703268,9.2307105 C79.3475167,9.2307105 80.0100183,9.57852384 80.3578316,10.2741505 C80.5483008,10.6550889 80.6435354,11.2016527 80.6435354,11.9138419 L80.6435354,11.9138419 L80.6435354,20.1495648 L84.2707316,20.1495648 L84.2707316,11.0318867 C84.2707316,9.33422638 83.8256133,8.11895002 82.9353768,7.38605764 C82.0451403,6.65316526 80.9002548,6.28671906 79.5007202,6.28671906 C78.3827487,6.28671906 77.4593871,6.56000097 76.7306354,7.10656478 C76.3248532,7.41297177 75.8942271,7.91398859 75.4387573,8.60961526 L75.4387573,8.60961526 L75.4387573,6.6345324 L72.0227335,6.6345324 L72.0227335,20.1495648 L75.5505544,20.1495648 Z" id="Path-Copy-7" fill="#FFFFFF" fill-rule="nonzero"></path>
                <path d="M93.6334627,20.6215972 C95.8114367,20.6215972 97.4552688,19.8472985 98.5649589,18.298701 C99.2605856,17.3380737 99.6498053,16.3194775 99.732618,15.2429124 L99.732618,15.2429124 L96.1178437,15.2429124 C96.0433123,15.9551016 95.8321399,16.5347905 95.4843265,16.9819791 C95.1365132,17.4291677 94.5485431,17.652762 93.7204161,17.652762 C92.552757,17.652762 91.7577551,17.0896356 91.3354103,15.9633829 C91.1035348,15.3588502 90.987597,14.5597077 90.987597,13.5659553 C90.987597,12.5225153 91.1035348,11.686107 91.3354103,11.0567305 C91.7743176,9.87250892 92.5900227,9.28039812 93.7825256,9.28039812 C94.6189338,9.28039812 95.2358884,9.55368003 95.6333894,10.1002438 C95.9066713,10.5060261 96.0764373,10.9614959 96.1426875,11.4666534 L96.1426875,11.4666534 L99.7698837,11.4666534 C99.5711332,9.53711749 98.9314051,8.19141113 97.8506994,7.42953431 C96.7699937,6.66765748 95.3808107,6.28671906 93.6831503,6.28671906 C91.6873643,6.28671906 90.1222043,6.93265811 88.9876703,8.22453621 C87.8531364,9.51641431 87.2858694,11.3258718 87.2858694,13.6529086 C87.2858694,15.7149448 87.7993081,17.391902 88.8261856,18.6837801 C89.853063,19.9756582 91.4554888,20.6215972 93.6334627,20.6215972 Z" id="Path-Copy-8" fill="#FFFFFF" fill-rule="nonzero"></path>
                <path d="M108.064331,6.24945335 C109.190584,6.24945335 110.205039,6.46062573 111.107698,6.8829705 C112.010356,7.30531526 112.75567,7.97195748 113.343641,8.88289717 C113.873642,9.68618035 114.217315,10.6178232 114.374659,11.6778258 C114.465753,12.298921 114.503018,13.1932981 114.486456,14.3609572 L114.486456,14.3609572 L105.219715,14.3609572 L105.234676,14.6271724 C105.327942,15.8442614 105.74944,16.7078691 106.499171,17.2179953 C106.987766,17.5575274 107.575736,17.7272934 108.263081,17.7272934 C108.991833,17.7272934 109.583944,17.5202616 110.039414,17.1061982 C110.287852,16.8826039 110.507306,16.5720562 110.697775,16.1745553 L110.697775,16.1745553 L114.312549,16.1745553 L114.282961,16.3756349 C114.149483,17.1138756 113.741142,17.8625541 113.057937,18.6216705 C111.898559,19.9383924 110.27543,20.5967534 108.18855,20.5967534 C106.466046,20.5967534 104.946433,20.0419083 103.629711,18.9322182 C102.312989,17.822528 101.654628,16.0172112 101.654628,13.5162677 C101.654628,11.1726683 102.248809,9.37563273 103.437171,8.12516098 C104.625534,6.87468923 106.16792,6.24945335 108.064331,6.24945335 Z M108.064331,9.16860098 C107.244485,9.16860098 106.608898,9.42532035 106.157569,9.93875908 C105.706239,10.4521978 105.422606,11.1478245 105.306668,12.0256391 L105.306668,12.0256391 L110.809572,12.0256391 C110.751603,11.0898556 110.46797,10.3797367 109.958672,9.89528241 C109.449373,9.41082812 108.817927,9.16860098 108.064331,9.16860098 Z" id="Combined-Shape-Copy-2" fill="#FFFFFF" fill-rule="nonzero"></path>
                <path d="M38.9066856,3.39917603 C39.7182938,3.18559493 40.6113804,3.28163191 41.3935734,3.73791119 C41.8821978,4.02294209 42.2887807,4.42952492 42.5738116,4.91814934 L42.5738116,4.91814934 L51.1256046,19.5783659 C51.5818838,20.3605589 51.6779208,21.2536456 51.4643397,22.0652537 C51.2507586,22.8768619 50.7275594,23.6069916 49.9453664,24.0632709 C49.4438465,24.3558242 48.8736445,24.5099778 48.293033,24.5099778 L48.293033,24.5099778 L31.189447,24.5099778 C30.2838993,24.5099778 29.4640796,24.1429321 28.870647,23.5494994 C28.2772143,22.9560667 27.9101685,22.1362471 27.9101685,21.2306993 C27.9101685,20.6500879 28.0643221,20.0798858 28.3568754,19.5783659 L28.3568754,19.5783659 L36.9086684,4.91814934 C37.3649477,4.1359563 38.0950774,3.61275712 38.9066856,3.39917603 Z" id="Triangle-Copy-10" stroke="#FFFFFF" stroke-width="2.4881472" fill="url(#linearGradient-1)" transform="translate(39.741240, 12.898624) rotate(-270.000000) translate(-39.741240, -12.898624) "></path>
            </g>
        </g>
    </g>
</svg>