<?xml version="1.0" encoding="UTF-8"?>
<svg width="157px" height="94px" viewBox="0 0 157 94" version="1.1" xmlns="http://www.w3.org/2000/svg" xmlns:xlink="http://www.w3.org/1999/xlink">
    <title>Group 13</title>
    <g id="Page-1" stroke="none" stroke-width="1" fill="none" fill-rule="evenodd">
        <g id="Artboard-Copy-5" transform="translate(-1114.000000, -8.000000)">
            <g id="Group-13" transform="translate(1114.000000, 8.000000)">
                <polygon id="Fill-1" fill="#121212" points="156.090192 0.000144 124.430832 3.125424 53.266992 3.226224 67.536912 12.608784 33.315312 17.715504 -4.8e-05 76.808304 50.161872 58.335504 32.869872 94.000464 136.306512 46.999824 156.094512 0.000144"></polygon>
                <polygon id="Stroke-2" stroke="#EC1D24" stroke-width="1.44" points="37.107648 21.970608 11.628288 66.128688 31.645728 58.905648 53.548608 18.707568 47.122848 19.922448 34.085088 43.591248 29.202528 45.087888 43.327008 20.771088"></polygon>
                <polygon id="Stroke-3" stroke="#EC1D24" stroke-width="1.44" points="73.037808 16.055952 58.678608 18.707472 39.110448 56.689872 55.382448 50.725392 67.345008 26.386992 57.213168 29.033712 59.339568 25.461552 69.317808 23.070672"></polygon>
                <polygon id="Stroke-4" stroke="#EC1D24" stroke-width="1.44" points="79.51968 12.1428 70.2528 7.46664 118.1688 8.7444 49.8936 72.71352"></polygon>
                <polygon id="Stroke-5" stroke="#EC1D24" stroke-width="1.44" points="99.303744 33.86352 123.376224 10.2672 114.901824 29.03808"></polygon>
                <polygon id="Stroke-6" stroke="#EC1D24" stroke-width="1.44" points="129.301152 7.51344 121.194432 27.69024 131.546112 24.9024 137.584512 12.74928 140.266752 12.45696 134.873952 24.28176 140.592672 23.11248 149.407392 3.99552 136.026432 6.41664 131.075232 15.77856 130.867872 15.70416 132.235872 7.03248"></polygon>
                <polygon id="Stroke-7" stroke="#EC1D24" stroke-width="1.44" points="91.82976 41.225472 55.3824 77.179392 103.0656 55.935552 105.23088 48.438432 75.37824 63.022752 108.09168 41.549472 111.73344 34.730112"></polygon>
                <polygon id="Stroke-8" stroke="#EC1D24" stroke-width="0.96" points="139.246176 29.037984 117.885696 33.297984 108.389376 53.707584 132.599136 42.688224"></polygon>
                <polygon id="Fill-9" fill="#EC1D24" points="119.19072 39.766944 129.18048 36.058944 129.67056 35.435904 120.81552 36.811584"></polygon>
                <polygon id="Stroke-10" stroke="#EC1D24" stroke-width="0.5" points="119.19072 39.766944 129.18048 36.058944 129.67056 35.435904 120.81552 36.811584"></polygon>
                <polygon id="Fill-11" fill="#EC1D24" points="134.582592 38.011728 116.484672 45.087888 133.679232 39.630768"></polygon>
                <polygon id="Stroke-12" stroke="#EC1D24" stroke-width="0.96" points="134.582592 38.011728 116.484672 45.087888 133.679232 39.630768"></polygon>
            </g>
        </g>
    </g>
</svg>