<?xml version="1.0" encoding="UTF-8"?>
<svg width="175px" height="27px" viewBox="0 0 175 27" version="1.1" xmlns="http://www.w3.org/2000/svg" xmlns:xlink="http://www.w3.org/1999/xlink">
    <title>Group</title>
    <defs>
        <linearGradient x1="18.3854925%" y1="62.512714%" x2="90.6725076%" y2="84.1874309%" id="linearGradient-1">
            <stop stop-color="#2D2360" offset="0%"></stop>
            <stop stop-color="#B80D78" offset="18.0728515%"></stop>
            <stop stop-color="#E12787" offset="30.9631774%"></stop>
            <stop stop-color="#F07541" offset="44.3310719%"></stop>
            <stop stop-color="#EDBFAC" offset="52.1990569%"></stop>
            <stop stop-color="#E2DEDE" offset="59.0849724%"></stop>
            <stop stop-color="#AED3E3" offset="69.8328185%"></stop>
            <stop stop-color="#009DDF" offset="84.493707%"></stop>
            <stop stop-color="#1F46A8" offset="100%"></stop>
        </linearGradient>
    </defs>
    <g id="Page-1" stroke="none" stroke-width="1" fill="none" fill-rule="evenodd">
        <g id="galleryCat-Copy-12" transform="translate(-255.000000, -28.000000)">
            <g id="Group" transform="translate(255.000000, 30.000000)">
                <g id="brand" fill-rule="nonzero">
                    <g id="Group-20" transform="translate(0.000000, 0.727880)" fill="#FFFFFF">
                        <path d="M4.63337049,18.7198105 C5.32899716,18.7198105 5.93560018,18.6287166 6.45317955,18.4465286 C6.97075891,18.2643407 7.50697114,17.9248086 8.06181622,17.4279324 C8.24400416,17.2705883 8.40134829,17.0884004 8.5338486,16.8813686 C8.66634892,16.6743369 8.74916162,16.5501178 8.7822867,16.5087115 L8.7822867,16.5087115 L8.7822867,18.4216848 L12.2231543,18.4216848 L12.2231543,4.88180859 L8.63322384,4.88180859 L8.63322384,12.2479981 C8.63322384,13.1175315 8.51728606,13.8172988 8.28541051,14.3473001 C7.83822193,15.3244899 7.01009495,15.8130848 5.80102955,15.8130848 C4.85696478,15.8130848 4.22344763,15.4694121 3.90047811,14.7820667 C3.71829017,14.392847 3.6271962,13.8131581 3.6271962,13.043 L3.6271962,13.043 L3.6271962,4.88180859 L3.31487797e-14,4.88180859 L3.31487797e-14,13.043 C3.31487797e-14,14.5915975 0.194609842,15.7633972 0.583829526,16.5583991 C1.2794562,17.9993401 2.62930318,18.7198105 4.63337049,18.7198105 Z" id="Path-Copy-6"></path>
                        <path d="M19.7971312,1.63348048 C19.7971312,0.731334123 19.065797,-1.94749081e-13 18.1636507,-1.94749081e-13 L17.8406812,-1.94749081e-13 C16.9385348,-1.94749081e-13 16.2072007,0.731334123 16.2072007,1.63348048 C16.2072007,2.53562684 16.9385348,3.26696096 17.8406812,3.26696096 L18.1636507,3.26696096 C19.065797,3.26696096 19.7971312,2.53562684 19.7971312,1.63348048 Z" id="Path"></path>
                        <polygon id="Path" points="19.7971312 18.4216848 19.7971312 4.88180859 16.2072007 4.88180859 16.2072007 18.4216848"></polygon>
                    </g>
                    <path d="M62.6600023,5.28671906 C64.1423496,5.28671906 65.4590716,5.58070414 66.6101681,6.16867431 C67.7612646,6.75664447 68.3368128,7.86633463 68.3368128,9.4977448 L68.3368128,9.4977448 L68.3375029,15.9316014 C68.3398033,16.3157603 68.3478545,16.7631789 68.3616566,17.2738572 C68.3865005,17.7376083 68.4568912,18.0522966 68.572829,18.217922 C68.6887668,18.3835474 68.8626735,18.5201883 69.094549,18.6278448 L69.094549,18.6278448 L69.094549,19.1495648 L65.2437585,19.1495648 L65.1692271,18.9477089 C65.1009066,18.7489584 65.051219,18.5595244 65.0201642,18.3794067 C64.9787579,18.1392499 64.9456328,17.865968 64.920789,17.559561 C64.4321941,18.0895623 63.8690677,18.5408915 63.23141,18.9135486 C62.4695331,19.3524559 61.6082811,19.5719096 60.6476538,19.5719096 C59.4220258,19.5719096 58.4096406,19.2220259 57.610498,18.5222586 C56.8113555,17.8224913 56.4117842,16.8308093 56.4117842,15.5472124 C56.4117842,13.8826772 57.0535826,12.6777524 58.3371795,11.9324381 C59.0410874,11.5266559 60.0762461,11.2368115 61.4426557,11.0629048 L61.4426557,11.0629048 L62.6475804,10.9138419 L62.8841789,10.8818167 C63.4158623,10.8048268 63.8048879,10.711986 64.0512557,10.6032943 C64.5564131,10.3879813 64.8089919,10.0525899 64.8089919,9.59712 C64.8089919,9.042275 64.6164523,8.65926622 64.2313733,8.44809384 C63.8462942,8.23692146 63.2810976,8.13133527 62.5357833,8.13133527 C61.699375,8.13133527 61.1072642,8.33836701 60.7594509,8.75243051 C60.5110128,9.0588375 60.3453874,9.472901 60.2625747,9.994621 L60.2625747,9.994621 L56.8465509,9.994621 L56.8705321,9.702965 C56.9780736,8.649691 57.3013306,7.77386045 57.8403033,7.07547336 C58.7760868,5.8829705 60.3826531,5.28671906 62.6600023,5.28671906 Z M64.79657,12.5659553 L64.5722856,12.6977655 C64.4223026,12.7796581 64.2713994,12.8495888 64.1195761,12.9075577 C63.8918412,12.994511 63.5792233,13.0752534 63.1817223,13.1497848 L63.1817223,13.1497848 L62.3867204,13.2988477 L62.1461035,13.3440879 C61.525315,13.4675913 61.0713787,13.613996 60.7842947,13.783302 C60.2377309,14.1062715 59.964449,14.6072883 59.964449,15.2863524 C59.964449,15.8908851 60.1321447,16.3277221 60.4675361,16.5968634 C60.8029276,16.8660047 61.2107801,17.0005753 61.6910938,17.0005753 C62.4529706,17.0005753 63.1548082,16.776981 63.7966066,16.3297924 C64.438405,15.8826039 64.7717262,15.0668988 64.79657,13.8826772 L64.79657,13.8826772 L64.79657,12.5659553 Z" id="Combined-Shape-Copy" fill="#FFFFFF"></path>
                    <path d="M75.5505544,19.1495648 L75.5505544,11.820641 C75.5505544,10.9842327 75.6664922,10.2968873 75.8983678,9.7586048 C76.3455563,8.7400086 77.1695427,8.2307105 78.3703268,8.2307105 C79.3475167,8.2307105 80.0100183,8.57852384 80.3578316,9.2741505 C80.5483008,9.6550889 80.6435354,10.2016527 80.6435354,10.9138419 L80.6435354,10.9138419 L80.6435354,19.1495648 L84.2707316,19.1495648 L84.2707316,10.0318867 C84.2707316,8.33422638 83.8256133,7.11895002 82.9353768,6.38605764 C82.0451403,5.65316526 80.9002548,5.28671906 79.5007202,5.28671906 C78.3827487,5.28671906 77.4593871,5.56000097 76.7306354,6.10656478 C76.3248532,6.41297177 75.8942271,6.91398859 75.4387573,7.60961526 L75.4387573,7.60961526 L75.4387573,5.6345324 L72.0227335,5.6345324 L72.0227335,19.1495648 L75.5505544,19.1495648 Z" id="Path-Copy-7" fill="#FFFFFF"></path>
                    <path d="M93.6334627,19.6215972 C95.8114367,19.6215972 97.4552688,18.8472985 98.5649589,17.298701 C99.2605856,16.3380737 99.6498053,15.3194775 99.732618,14.2429124 L99.732618,14.2429124 L96.1178437,14.2429124 C96.0433123,14.9551016 95.8321399,15.5347905 95.4843265,15.9819791 C95.1365132,16.4291677 94.5485431,16.652762 93.7204161,16.652762 C92.552757,16.652762 91.7577551,16.0896356 91.3354103,14.9633829 C91.1035348,14.3588502 90.987597,13.5597077 90.987597,12.5659553 C90.987597,11.5225153 91.1035348,10.686107 91.3354103,10.0567305 C91.7743176,8.87250892 92.5900227,8.28039812 93.7825256,8.28039812 C94.6189338,8.28039812 95.2358884,8.55368003 95.6333894,9.1002438 C95.9066713,9.5060261 96.0764373,9.9614959 96.1426875,10.4666534 L96.1426875,10.4666534 L99.7698837,10.4666534 C99.5711332,8.53711749 98.9314051,7.19141113 97.8506994,6.42953431 C96.7699937,5.66765748 95.3808107,5.28671906 93.6831503,5.28671906 C91.6873643,5.28671906 90.1222043,5.93265811 88.9876703,7.22453621 C87.8531364,8.51641431 87.2858694,10.3258718 87.2858694,12.6529086 C87.2858694,14.7149448 87.7993081,16.391902 88.8261856,17.6837801 C89.853063,18.9756582 91.4554888,19.6215972 93.6334627,19.6215972 Z" id="Path-Copy-8" fill="#FFFFFF"></path>
                    <path d="M108.064331,5.24945335 C109.190584,5.24945335 110.205039,5.46062573 111.107698,5.8829705 C112.010356,6.30531526 112.75567,6.97195748 113.343641,7.88289717 C113.873642,8.68618035 114.217315,9.6178232 114.374659,10.6778258 C114.465753,11.298921 114.503018,12.1932981 114.486456,13.3609572 L114.486456,13.3609572 L105.219715,13.3609572 L105.234676,13.6271724 C105.327942,14.8442614 105.74944,15.7078691 106.499171,16.2179953 C106.987766,16.5575274 107.575736,16.7272934 108.263081,16.7272934 C108.991833,16.7272934 109.583944,16.5202616 110.039414,16.1061982 C110.287852,15.8826039 110.507306,15.5720562 110.697775,15.1745553 L110.697775,15.1745553 L114.312549,15.1745553 L114.282961,15.3756349 C114.149483,16.1138756 113.741142,16.8625541 113.057937,17.6216705 C111.898559,18.9383924 110.27543,19.5967534 108.18855,19.5967534 C106.466046,19.5967534 104.946433,19.0419083 103.629711,17.9322182 C102.312989,16.822528 101.654628,15.0172112 101.654628,12.5162677 C101.654628,10.1726683 102.248809,8.37563273 103.437171,7.12516098 C104.625534,5.87468923 106.16792,5.24945335 108.064331,5.24945335 Z M108.064331,8.16860098 C107.244485,8.16860098 106.608898,8.42532035 106.157569,8.93875908 C105.706239,9.4521978 105.422606,10.1478245 105.306668,11.0256391 L105.306668,11.0256391 L110.809572,11.0256391 C110.751603,10.0898556 110.46797,9.3797367 109.958672,8.89528241 C109.449373,8.41082812 108.817927,8.16860098 108.064331,8.16860098 Z" id="Combined-Shape-Copy-2" fill="#FFFFFF"></path>
                    <path d="M37.9047186,1.39774279 C38.7163268,1.18416169 39.6094134,1.28019867 40.3916064,1.73647795 C40.8802308,2.02150885 41.2868137,2.42809168 41.5718446,2.9167161 L41.5718446,2.9167161 L50.1236376,17.5769327 C50.5799168,18.3591257 50.6759538,19.2522124 50.4623727,20.0638205 C50.2487916,20.8754287 49.7255924,21.6055584 48.9433994,22.0618377 C48.4418795,22.354391 47.8716775,22.5085446 47.291066,22.5085446 L47.291066,22.5085446 L30.18748,22.5085446 C29.2819323,22.5085446 28.4621126,22.1414989 27.86868,21.5480662 C27.2752473,20.9546335 26.9082015,20.1348139 26.9082015,19.2292661 C26.9082015,18.6486547 27.0623551,18.0784526 27.3549084,17.5769327 L27.3549084,17.5769327 L35.9067014,2.9167161 C36.3629807,2.13452306 37.0931104,1.61132388 37.9047186,1.39774279 Z" id="Triangle-Copy-10" stroke="#FFFFFF" stroke-width="2.4881472" fill="url(#linearGradient-1)" transform="translate(38.739540, 11.898891) rotate(90.000000) translate(-38.739540, -11.898891) "></path>
                </g>
                <rect id="Rectangle" fill="#000000" x="121" y="5" width="54" height="15" rx="5"></rect>
                <path d="M129.061035,16 L129.061035,13.6708984 L130.436523,13.6708984 C131.154297,13.6708984 131.706543,13.5126953 132.093262,13.1962891 C132.47998,12.8798828 132.67334,12.3393555 132.67334,11.574707 C132.67334,10.8745117 132.47998,10.3574219 132.093262,10.0234375 C131.706543,9.68945312 131.187988,9.52246094 130.537598,9.52246094 L130.537598,9.52246094 L127.716309,9.52246094 L127.716309,16 L129.061035,16 Z M130.322266,12.5546875 L129.061035,12.5546875 L129.061035,10.6474609 L130.322266,10.6474609 C130.641602,10.6474609 130.889893,10.7192383 131.067139,10.862793 C131.244385,11.0063477 131.333008,11.246582 131.333008,11.5834961 C131.333008,11.9204102 131.244385,12.1665039 131.067139,12.3217773 C130.889893,12.4770508 130.641602,12.5546875 130.322266,12.5546875 L130.322266,12.5546875 Z M134.964021,16 L134.964021,13.7104492 C134.964021,13.3266602 135.01236,13.0424805 135.10904,12.8579102 C135.281892,12.5297852 135.620271,12.3657227 136.124177,12.3657227 C136.162263,12.3657227 136.212068,12.3671875 136.273591,12.3701172 C136.335114,12.3730469 136.405427,12.3789062 136.484528,12.3876953 L136.484528,12.3876953 L136.484528,11.1044922 C136.428864,11.1015625 136.392976,11.0993652 136.376862,11.0979004 C136.360749,11.0964355 136.340974,11.0957031 136.317536,11.0957031 C135.942536,11.0957031 135.637849,11.1938477 135.403474,11.3901367 C135.259919,11.5073242 135.091462,11.7255859 134.898103,12.0449219 L134.898103,12.0449219 L134.898103,11.2099609 L133.70279,11.2099609 L133.70279,16 L134.964021,16 Z M139.28058,16.1582031 C140.018862,16.1582031 140.59308,15.925293 141.003237,15.4594727 C141.266908,15.1665039 141.414858,14.8779297 141.447084,14.59375 L141.447084,14.59375 L140.168276,14.59375 C140.100893,14.734375 140.023256,14.8442383 139.935366,14.9233398 C139.774233,15.0698242 139.56476,15.1430664 139.306948,15.1430664 C139.063783,15.1430664 138.855776,15.0830078 138.682924,14.9628906 C138.398744,14.7695312 138.247866,14.4326172 138.230287,13.9521484 L138.230287,13.9521484 L141.508608,13.9521484 C141.514467,13.5390625 141.501283,13.2226562 141.469057,13.0029297 C141.413393,12.6279297 141.291811,12.2983398 141.104311,12.0141602 C140.896303,11.6918945 140.632631,11.4560547 140.313295,11.3066406 C139.993959,11.1572266 139.635073,11.0825195 139.236635,11.0825195 C138.565737,11.0825195 138.020082,11.3037109 137.599672,11.7460938 C137.179262,12.1884766 136.969057,12.8242188 136.969057,13.6533203 C136.969057,14.5380859 137.201967,15.1767578 137.667787,15.5693359 C138.133608,15.9619141 138.671205,16.1582031 139.28058,16.1582031 Z M140.207826,13.1259766 L138.261049,13.1259766 C138.302065,12.8154297 138.402407,12.5693359 138.562074,12.3876953 C138.721742,12.2060547 138.946596,12.1152344 139.236635,12.1152344 C139.503237,12.1152344 139.726625,12.2009277 139.906801,12.3723145 C140.086977,12.5437012 140.187319,12.7949219 140.207826,13.1259766 L140.207826,13.1259766 Z M144.62546,14.0839844 L144.62546,12.8974609 L142.102999,12.8974609 L142.102999,14.0839844 L144.62546,14.0839844 Z M146.779911,16.1494141 C147.119754,16.1494141 147.424442,16.0717773 147.693973,15.9165039 C147.919559,15.784668 148.118778,15.625 148.291629,15.4375 C148.300419,15.5458984 148.312137,15.6425781 148.326786,15.7275391 C148.341434,15.8125 148.367801,15.9033203 148.405887,16 L148.405887,16 L149.768192,16 L149.768192,15.8154297 C149.686161,15.7773438 149.624637,15.7290039 149.583622,15.6704102 C149.542606,15.6118164 149.517704,15.5004883 149.508915,15.3364258 C149.503055,15.1196289 149.500126,14.9350586 149.500126,14.7827148 L149.500126,12.5854492 C149.500126,12.0083008 149.296512,11.6157227 148.889286,11.4077148 C148.482059,11.199707 148.016239,11.0957031 147.491825,11.0957031 C146.686161,11.0957031 146.117801,11.3066406 145.786747,11.7285156 C145.578739,11.9980469 145.461551,12.3422852 145.435184,12.7612305 L145.435184,12.7612305 L146.64368,12.7612305 C146.672977,12.5766602 146.731571,12.4301758 146.819461,12.3217773 C146.942508,12.175293 147.151981,12.1020508 147.447879,12.1020508 C147.711551,12.1020508 147.911503,12.1394043 148.047733,12.2141113 C148.183963,12.2888184 148.252079,12.4243164 148.252079,12.6206055 C148.252079,12.7817383 148.162723,12.9003906 147.984012,12.9765625 C147.884403,13.0205078 147.718876,13.0571289 147.48743,13.0864258 L147.48743,13.0864258 L147.061161,13.1391602 C146.577762,13.2006836 146.211551,13.3032227 145.962528,13.4467773 C145.508426,13.7104492 145.281376,14.1367188 145.281376,14.7255859 C145.281376,15.1796875 145.422733,15.5305176 145.705448,15.7780762 C145.988163,16.0256348 146.346317,16.1494141 146.779911,16.1494141 Z M147.149051,15.2397461 C146.979129,15.2397461 146.834842,15.1921387 146.71619,15.0969238 C146.597538,15.001709 146.538211,14.847168 146.538211,14.6333008 C146.538211,14.3930664 146.634891,14.2158203 146.828251,14.1015625 C146.942508,14.0341797 147.131473,13.9770508 147.395145,13.9301758 L147.395145,13.9301758 L147.676395,13.8774414 C147.81702,13.8510742 147.927616,13.8225098 148.008182,13.791748 C148.088749,13.7609863 148.168583,13.7207031 148.247684,13.6708984 L148.247684,13.6708984 L148.247684,14.1367188 C148.238895,14.5556641 148.120975,14.8442383 147.893924,15.0024414 C147.666874,15.1606445 147.418583,15.2397461 147.149051,15.2397461 Z M152.019322,16 L152.019322,9.52246094 L150.766881,9.52246094 L150.766881,16 L152.019322,16 Z M154.573675,17.8852539 L154.573675,15.3891602 C154.705511,15.5913086 154.840276,15.7451172 154.977972,15.8505859 C155.229925,16.0410156 155.546331,16.1362305 155.92719,16.1362305 C156.524847,16.1362305 157.013372,15.9150391 157.392766,15.4726562 C157.772161,15.0302734 157.961858,14.387207 157.961858,13.543457 C157.961858,12.7436523 157.767766,12.137207 157.379583,11.7241211 C156.991399,11.3110352 156.517522,11.1044922 155.957952,11.1044922 C155.574163,11.1044922 155.243108,11.2114258 154.964788,11.425293 C154.812444,11.5454102 154.66889,11.7094727 154.534124,11.9174805 L154.534124,11.9174805 L154.534124,11.2099609 L153.334417,11.2099609 L153.334417,17.8852539 L154.573675,17.8852539 Z M155.5976,15.0859375 C155.357366,15.0859375 155.149358,15.0200195 154.973577,14.8881836 C154.677679,14.6625977 154.529729,14.2714844 154.529729,13.7148438 C154.529729,13.3632812 154.573675,13.0732422 154.661565,12.8447266 C154.831487,12.4140625 155.143499,12.1987305 155.5976,12.1987305 C155.97553,12.1987305 156.248723,12.3408203 156.417181,12.625 C156.585638,12.9091797 156.669866,13.2358398 156.669866,13.6049805 C156.669866,14.0532227 156.578313,14.4121094 156.395208,14.6816406 C156.212102,14.9511719 155.946233,15.0859375 155.5976,15.0859375 Z M160.252539,16 L160.252539,13.4072266 C160.252539,12.9970703 160.338232,12.6813965 160.509619,12.4602051 C160.681006,12.2390137 160.932227,12.128418 161.263281,12.128418 C161.582617,12.128418 161.799414,12.2397461 161.913672,12.4624023 C162.001563,12.6206055 162.045508,12.8286133 162.045508,13.0864258 L162.045508,13.0864258 L162.045508,16 L163.324316,16 L163.324316,13.1875 C163.324316,12.7597656 163.309668,12.451416 163.280371,12.2624512 C163.251074,12.0734863 163.170508,11.8896484 163.038672,11.7109375 C162.883398,11.5 162.684912,11.3432617 162.443213,11.2407227 C162.201514,11.1381836 161.932715,11.0869141 161.636816,11.0869141 C161.373145,11.0869141 161.121924,11.1418457 160.883154,11.251709 C160.644385,11.3615723 160.43418,11.5556641 160.252539,11.8339844 L160.252539,11.8339844 L160.252539,9.54443359 L159.004492,9.54443359 L159.004492,16 L160.252539,16 Z M165.795173,16.1494141 C166.135017,16.1494141 166.439704,16.0717773 166.709235,15.9165039 C166.934821,15.784668 167.13404,15.625 167.306892,15.4375 C167.315681,15.5458984 167.3274,15.6425781 167.342048,15.7275391 C167.356696,15.8125 167.383064,15.9033203 167.42115,16 L167.42115,16 L168.783454,16 L168.783454,15.8154297 C168.701423,15.7773438 168.6399,15.7290039 168.598884,15.6704102 C168.557868,15.6118164 168.532966,15.5004883 168.524177,15.3364258 C168.518318,15.1196289 168.515388,14.9350586 168.515388,14.7827148 L168.515388,12.5854492 C168.515388,12.0083008 168.311775,11.6157227 167.904548,11.4077148 C167.497321,11.199707 167.031501,11.0957031 166.507087,11.0957031 C165.701423,11.0957031 165.133064,11.3066406 164.802009,11.7285156 C164.594001,11.9980469 164.476814,12.3422852 164.450446,12.7612305 L164.450446,12.7612305 L165.658943,12.7612305 C165.688239,12.5766602 165.746833,12.4301758 165.834724,12.3217773 C165.957771,12.175293 166.167243,12.1020508 166.463142,12.1020508 C166.726814,12.1020508 166.926765,12.1394043 167.062995,12.2141113 C167.199226,12.2888184 167.267341,12.4243164 167.267341,12.6206055 C167.267341,12.7817383 167.177985,12.9003906 166.999275,12.9765625 C166.899665,13.0205078 166.734138,13.0571289 166.502693,13.0864258 L166.502693,13.0864258 L166.076423,13.1391602 C165.593025,13.2006836 165.226814,13.3032227 164.97779,13.4467773 C164.523689,13.7104492 164.296638,14.1367188 164.296638,14.7255859 C164.296638,15.1796875 164.437995,15.5305176 164.72071,15.7780762 C165.003425,16.0256348 165.361579,16.1494141 165.795173,16.1494141 Z M166.164314,15.2397461 C165.994392,15.2397461 165.850105,15.1921387 165.731452,15.0969238 C165.6128,15.001709 165.553474,14.847168 165.553474,14.6333008 C165.553474,14.3930664 165.650153,14.2158203 165.843513,14.1015625 C165.957771,14.0341797 166.146735,13.9770508 166.410407,13.9301758 L166.410407,13.9301758 L166.691657,13.8774414 C166.832282,13.8510742 166.942878,13.8225098 167.023444,13.791748 C167.104011,13.7609863 167.183845,13.7207031 167.262946,13.6708984 L167.262946,13.6708984 L167.262946,14.1367188 C167.254157,14.5556641 167.136237,14.8442383 166.909187,15.0024414 C166.682136,15.1606445 166.433845,15.2397461 166.164314,15.2397461 Z" id="Pre-alpha" fill="#FFFFFF" fill-rule="nonzero"></path>
            </g>
        </g>
    </g>
</svg>