<?xml version="1.0" encoding="UTF-8"?>
<svg width="922px" height="668px" viewBox="0 0 922 668" version="1.1" xmlns="http://www.w3.org/2000/svg" xmlns:xlink="http://www.w3.org/1999/xlink">
    <title>Group 32</title>
    <defs>
        <filter x="-30.1%" y="-50.0%" width="160.2%" height="200.0%" filterUnits="objectBoundingBox" id="filter-1">
            <feOffset dx="0" dy="34" in="SourceAlpha" result="shadowOffsetOuter1"></feOffset>
            <feGaussianBlur stdDeviation="33" in="shadowOffsetOuter1" result="shadowBlurOuter1"></feGaussianBlur>
            <feColorMatrix values="0 0 0 0 0.0233928887   0 0 0 0 0.0295369108   0 0 0 0 0.0349581069  0 0 0 0.871694712 0" type="matrix" in="shadowBlurOuter1" result="shadowMatrixOuter1"></feColorMatrix>
            <feMerge>
                <feMergeNode in="shadowMatrixOuter1"></feMergeNode>
                <feMergeNode in="SourceGraphic"></feMergeNode>
            </feMerge>
        </filter>
    </defs>
    <g id="Page-1" stroke="none" stroke-width="1" fill="none" fill-rule="evenodd">
        <g id="Group-32" filter="url(#filter-1)" transform="translate(142.000000, 142.000000)">
            <polygon id="Fill-1-Copy" fill="#121212" points="637.222796 1.84741111e-12 507.976625 12.7586431 217.457364 13.170149 275.712886 51.4735119 136.006626 72.3211857 6.82121026e-13 313.561632 204.781022 238.148274 134.188161 383.746906 556.457901 191.871494 637.240432 1.84741111e-12"></polygon>
            <polygon id="Stroke-2-Copy" stroke="#EC1D24" stroke-width="5.878656" points="151.488458 89.6922222 47.4715189 269.963168 129.190716 240.47583 218.607033 76.3711877 192.374511 81.3308138 139.149159 177.956323 119.216596 184.066206 176.878373 84.7953018"></polygon>
            <polygon id="Stroke-3-Copy" stroke="#EC1D24" stroke-width="5.878656" points="298.169743 65.5462306 239.549745 76.3707958 159.664689 231.430146 226.093502 207.080752 274.929457 107.721668 233.567233 118.526638 242.248048 103.943652 282.983215 94.1831235"></polygon>
            <polygon id="Stroke-4-Copy" stroke="#EC1D24" stroke-width="5.878656" points="324.631338 49.5711789 286.800227 30.4812233 482.412505 35.6975507 203.685829 296.845086"></polygon>
            <polygon id="Stroke-4-Copy-2" stroke="#EC1D24" stroke-width="5.878656" points="352.000196 51.9994121 430.000196 55.9994121 274.000196 201.999412 352.000196 65.9994121"></polygon>
            <polygon id="Stroke-4-Copy-3" stroke="#EC1D24" stroke-width="5.878656" points="368.000196 67.9994121 392.000196 69.2260788 344.000196 113.999412 368.000196 72.2927455"></polygon>
            <polygon id="Stroke-5-Copy" stroke="#EC1D24" stroke-width="5.878656" points="405.3978 138.243846 503.671293 41.9142294 469.075402 118.54447"></polygon>
            <polygon id="Stroke-6-Copy" stroke="#EC1D24" stroke-width="5.878656" points="527.859219 30.6722796 494.764345 113.042048 537.024044 101.66097 561.675208 52.0470728 572.625184 50.8537056 550.609618 99.1272692 573.95572 94.3538005 609.940933 16.310723 555.314502 26.1947033 535.101723 64.4138055 534.255197 64.1100749 539.83992 28.7088085"></polygon>
            <polygon id="Stroke-7-Copy" stroke="#EC1D24" stroke-width="5.878656" points="374.886008 168.298279 226.093306 315.076562 420.755201 228.35071 429.59474 197.744467 307.724323 257.283495 441.27367 169.620977 456.140791 141.781621"></polygon>
            <polygon id="Stroke-8-Copy" stroke="#EC1D24" stroke-width="3.919104" points="568.458785 118.544078 481.256761 135.935102 442.488985 219.255253 541.322909 174.269818"></polygon>
            <polygon id="Fill-9-Copy" fill="#EC1D24" points="486.584391 162.343984 527.366588 147.206445 529.36729 144.662947 493.217475 150.279023"></polygon>
            <polygon id="Stroke-10-Copy" stroke="#EC1D24" stroke-width="2.0412" points="486.584391 162.343984 527.366588 147.206445 529.36729 144.662947 493.217475 150.279023"></polygon>
            <polygon id="Fill-11-Copy" fill="#EC1D24" points="549.42017 155.178491 475.537221 184.066206 545.732293 161.788059"></polygon>
            <polygon id="Stroke-12-Copy" stroke="#EC1D24" stroke-width="3.919104" points="549.42017 155.178491 475.537221 184.066206 545.732293 161.788059"></polygon>
        </g>
    </g>
</svg>