<?xml version="1.0" encoding="UTF-8"?>
<svg width="319px" height="192px" viewBox="0 0 319 192" version="1.1" xmlns="http://www.w3.org/2000/svg" xmlns:xlink="http://www.w3.org/1999/xlink">
    <title>Group 32</title>
    <g id="Page-1" stroke="none" stroke-width="1" fill="none" fill-rule="evenodd">
        <g id="Group-32" transform="translate(-0.000000, 0.000000)">
            <polygon id="Fill-1" fill="#000000" points="318.611398 9.23705556e-13 253.988312 6.37932154 108.728682 6.5850745 137.856443 25.736756 68.0033128 36.1605928 3.41060513e-13 156.780816 102.390511 119.074137 67.0940807 191.873453 278.22895 95.9357468 318.620216 9.23705556e-13"></polygon>
            <polygon id="Stroke-2" stroke="#EC1D24" stroke-width="2.939328" points="75.7442291 44.8461111 23.7357594 134.981584 64.595358 120.237915 109.303517 38.1855939 96.1872553 40.6654069 69.5745796 88.9781615 59.6082981 92.0331031 88.4391867 42.3976509"></polygon>
            <polygon id="Stroke-3" stroke="#EC1D24" stroke-width="2.939328" points="149.084872 32.7731153 119.774873 38.1853979 79.8323444 115.715073 113.046751 103.540376 137.464728 53.8608341 121.124024 51.971826 141.491608 47.0915618"></polygon>
            <polygon id="Stroke-4" stroke="#EC1D24" stroke-width="2.939328" points="162.315669 24.7855894 143.400113 15.2406116 241.206253 17.8487753 101.842914 148.422543"></polygon>
            <polygon id="Stroke-4" stroke="#EC1D24" stroke-width="2.939328" points="175 26 216 27 137.000098 100.999706"></polygon>
            <polygon id="Stroke-4" stroke="#EC1D24" stroke-width="2.939328" points="183 35 192 35 168 59"></polygon>
            <polygon id="Stroke-5" stroke="#EC1D24" stroke-width="2.939328" points="202.6989 69.1219231 251.835646 20.9571147 234.537701 59.272235"></polygon>
            <polygon id="Stroke-6" stroke="#EC1D24" stroke-width="2.939328" points="263.929609 15.3361398 247.382173 56.521024 268.512022 50.8304849 280.837604 26.0235364 286.312592 25.4268528 275.304809 49.5636346 286.97786 47.1769002 304.970467 8.15536149 277.657251 13.0973516 267.550862 32.2069027 267.127598 32.0550375 269.91996 14.3544042"></polygon>
            <polygon id="Stroke-7" stroke="#EC1D24" stroke-width="2.939328" points="187.443004 84.1491395 113.046653 157.538281 210.377601 114.175355 214.79737 98.8722335 153.862161 128.641747 220.636835 84.8104883 228.070396 70.8908107"></polygon>
            <polygon id="Stroke-8" stroke="#EC1D24" stroke-width="2.94" points="284.229392 59.272039 240.628381 67.967551 221.244492 109.627627 270.661454 87.1349089"></polygon>
            <polygon id="Fill-9" fill="#EC1D24" points="243.292196 81.1719922 263.683294 73.6032226 264.683645 72.3314733 246.608737 75.1395113"></polygon>
            <polygon id="Stroke-10" stroke="#EC1D24" stroke-width="1.0206" points="243.292196 81.1719922 263.683294 73.6032226 264.683645 72.3314733 246.608737 75.1395113"></polygon>
            <polygon id="Fill-11" fill="#EC1D24" points="274.710085 77.5892453 237.76861 92.0331031 272.866146 80.8940297"></polygon>
            <polygon id="Stroke-12" stroke="#EC1D24" stroke-width="1.959552" points="274.710085 77.5892453 237.76861 92.0331031 272.866146 80.8940297"></polygon>
        </g>
    </g>
</svg>