<?xml version="1.0" encoding="UTF-8"?>
<svg width="126px" height="32px" viewBox="0 0 126 32" version="1.1" xmlns="http://www.w3.org/2000/svg" xmlns:xlink="http://www.w3.org/1999/xlink">
    <title>Group 2</title>
    <g id="Page-1" stroke="none" stroke-width="1" fill="none" fill-rule="evenodd">
        <g id="galleryCat-Copy-24" transform="translate(-622.000000, -55.000000)">
            <g id="Group-2" transform="translate(622.000000, 57.000000)">
                <g id="Group-20" transform="translate(0.000000, 1.512000)" fill="#FFFFFF" fill-rule="nonzero">
                    <path d="M5.09502268,20.5849844 C5.85995906,20.5849844 6.5270018,20.4848142 7.09615089,20.2844737 C7.66529998,20.0841332 8.25493845,19.7107714 8.86506627,19.1643883 C9.06540675,18.9913669 9.23842808,18.7910265 9.38413025,18.5633668 C9.52983241,18.3357072 9.62089627,18.1991114 9.65732181,18.1535795 L9.65732181,18.1535795 L9.65732181,20.2571545 L13.441025,20.2571545 L13.441025,5.36821425 L9.49340687,5.36821425 L9.49340687,13.4683441 C9.49340687,14.4245146 9.36591747,15.1940042 9.11093868,15.7768129 C8.61919386,16.8513663 7.70855532,17.3886431 6.37902303,17.3886431 C5.34089509,17.3886431 4.6442566,17.0107281 4.28910756,16.2548981 C4.08876708,15.826898 3.98859684,15.189451 3.98859684,14.3425571 L3.98859684,14.3425571 L3.98859684,5.36821425 L3.64516036e-14,5.36821425 L3.64516036e-14,14.3425571 C3.64516036e-14,16.0454512 0.214000059,17.3340048 0.642000177,18.2082178 C1.40693656,19.7927289 2.89127739,20.5849844 5.09502268,20.5849844 Z" id="Path-Copy-6"></path>
                    <path d="M21.7696453,1.79623454 C21.7696453,0.804201595 20.9654437,-2.14779494e-13 19.9734108,-2.14153171e-13 L19.6182618,-2.14153171e-13 C18.6262288,-2.13970938e-13 17.8220272,0.804201595 17.8220272,1.79623454 C17.8220272,2.78826748 18.6262288,3.59246908 19.6182618,3.59246908 L19.9734108,3.59246908 C20.9654437,3.59246908 21.7696453,2.78826748 21.7696453,1.79623454 Z" id="Path"></path>
                    <polygon id="Path" points="21.7696453 20.2571545 21.7696453 5.36821425 17.8220272 5.36821425 17.8220272 20.2571545"></polygon>
                </g>
                <path d="M68.9032171,6.52506521 C70.5332601,6.52506521 71.9811754,6.8483419 73.246963,7.49489527 C74.5127506,8.14144864 75.1456444,9.36170429 75.1456444,11.1556622 L75.1456444,11.1556622 L75.1464032,18.2305649 C75.1489328,18.653 75.1577862,19.1449978 75.1729635,19.7065582 C75.2002827,20.2165158 75.277687,20.5625584 75.4051764,20.7446862 C75.5326657,20.9268139 75.7238998,21.0770692 75.9788786,21.1954522 L75.9788786,21.1954522 L75.9788786,21.7691545 L71.7444094,21.7691545 L71.6624519,21.5471864 C71.5873242,21.3286331 71.5326859,21.1203246 71.498537,20.9222607 C71.453005,20.6581755 71.4165795,20.3576648 71.3892604,20.0207285 C70.8519836,20.6035372 70.2327494,21.0998352 69.5315577,21.5096225 C68.6937702,21.992261 67.7467062,22.2335802 66.6903654,22.2335802 C65.3426204,22.2335802 64.2293648,21.8488354 63.3505986,21.0793458 C62.4718324,20.3098562 62.0324493,19.2193666 62.0324493,17.8078768 C62.0324493,15.9774933 62.7381941,14.6525143 64.1496839,13.8329396 C64.9237267,13.3867267 66.0620248,13.0680032 67.5645784,12.8767691 L67.5645784,12.8767691 L68.8895575,12.7128542 L69.1217704,12.6816563 C69.7207682,12.5962137 70.1578747,12.4927832 70.4330899,12.3713647 C70.9885794,12.1345987 71.2663241,11.7657901 71.2663241,11.2649389 C71.2663241,10.654811 71.0546007,10.2336407 70.6311538,10.0014279 C70.2077068,9.76921504 69.586196,9.65310863 68.7666213,9.65310863 C67.8468764,9.65310863 67.1957698,9.88076826 66.8133016,10.3360875 C66.5401101,10.6730238 66.3579824,11.1283431 66.2669185,11.7020454 L66.2669185,11.7020454 L62.5105345,11.7020454 L62.5369051,11.3813298 C62.6551616,10.2231114 63.0106268,9.26001632 63.6033008,8.49204448 C64.6323223,7.18072497 66.3989611,6.52506521 68.9032171,6.52506521 Z M71.2526646,14.5295781 L71.0060333,14.6745214 C70.8411065,14.7645734 70.675168,14.8414718 70.5082176,14.9052165 C70.257792,15.0008335 69.9140259,15.0896208 69.4769194,15.1715782 L69.4769194,15.1715782 L68.6027064,15.3354932 L68.3381153,15.385241 C67.6554737,15.5210498 67.1563088,15.6820417 66.8406208,15.8682167 C66.2395994,16.2233658 65.9390886,16.7743021 65.9390886,17.5210257 C65.9390886,18.1857918 66.1234929,18.6661537 66.4923016,18.9621112 C66.8611102,19.2580687 67.3095997,19.4060475 67.83777,19.4060475 C68.6755575,19.4060475 69.4473236,19.1601751 70.1530685,18.6684303 C70.8588134,18.1766854 71.2253454,17.2797065 71.2526646,15.9774933 L71.2526646,15.9774933 L71.2526646,14.5295781 Z" id="Combined-Shape-Copy" fill="#FFFFFF" fill-rule="nonzero"></path>
                <path d="M83.0781369,21.7691545 L83.0781369,13.7100034 C83.0781369,12.7902584 83.2056263,12.0344284 83.4606051,11.4425134 C83.9523499,10.322428 84.8584353,9.76238525 86.1788612,9.76238525 C87.2534147,9.76238525 87.9819255,10.1448534 88.3643937,10.9097898 C88.5738406,11.3286836 88.678564,11.929705 88.678564,12.7128542 L88.678564,12.7128542 L88.678564,21.7691545 L92.6671609,21.7691545 L92.6671609,11.7430241 C92.6671609,9.87621507 92.1776926,8.539853 91.1987562,7.73393788 C90.2198198,6.92802277 88.960862,6.52506521 87.4218828,6.52506521 C86.1925208,6.52506521 85.1771588,6.82557593 84.3757969,7.42659737 C83.929584,7.76353364 83.4560519,8.31446996 82.9552007,9.07940634 L82.9552007,9.07940634 L82.9552007,6.9075334 L79.1988167,6.9075334 L79.1988167,21.7691545 L83.0781369,21.7691545 Z" id="Path-Copy-7" fill="#FFFFFF" fill-rule="nonzero"></path>
                <path d="M102.96276,22.2882185 C105.35774,22.2882185 107.165357,21.4367714 108.385613,19.7338774 C109.150549,18.6775366 109.57855,17.5574512 109.669613,16.3736211 L109.669613,16.3736211 L105.694676,16.3736211 C105.612719,17.1567703 105.380506,17.7942173 104.998038,18.2859621 C104.615569,18.7777069 103.969016,19.0235793 103.058378,19.0235793 C101.774377,19.0235793 100.900164,18.4043451 100.435738,17.1658767 C100.18076,16.5011105 100.05327,15.6223443 100.05327,14.5295781 C100.05327,13.3821735 100.18076,12.4624285 100.435738,11.7703433 C100.918377,10.4681301 101.815356,9.81702357 103.126675,9.81702357 C104.04642,9.81702357 104.724846,10.1175343 105.161953,10.7185557 C105.462463,11.1647686 105.649144,11.6656198 105.721995,12.2211093 L105.721995,12.2211093 L109.710592,12.2211093 C109.492039,10.0993215 108.788571,8.61953387 107.600187,7.78174641 C106.411804,6.94395894 104.884208,6.52506521 103.017399,6.52506521 C100.82276,6.52506521 99.101653,7.23536328 97.8540782,8.65595942 C96.6065034,10.0765556 95.982716,12.0663008 95.982716,14.6251951 C95.982716,16.8926851 96.5473119,18.7367282 97.6765037,20.1573243 C98.8056955,21.5779204 100.567781,22.2882185 102.96276,22.2882185 Z" id="Path-Copy-8" fill="#FFFFFF" fill-rule="nonzero"></path>
                <path d="M118.831468,6.48408648 C120.069936,6.48408648 121.185469,6.71629931 122.178065,7.18072497 C123.170661,7.64515063 123.990235,8.37821466 124.636789,9.37991706 C125.219597,10.2632365 125.597512,11.2877048 125.770534,12.4533222 C125.870704,13.1363011 125.911683,14.1197907 125.89347,15.4037911 L125.89347,15.4037911 L115.703425,15.4037911 L115.718525,15.6785834 C115.818304,17.0263996 116.282249,17.9820365 117.110361,18.5454941 C117.647638,18.9188559 118.294191,19.1055368 119.050021,19.1055368 C119.851383,19.1055368 120.50249,18.8778771 121.003341,18.4225579 C121.276533,18.1766854 121.517852,17.835196 121.727299,17.3980895 L121.727299,17.3980895 L125.702236,17.3980895 L125.669699,17.6192039 C125.522922,18.4310002 125.073895,19.2542744 124.322618,20.0890264 C123.047724,21.5369417 121.262873,22.2608993 118.968064,22.2608993 C117.073936,22.2608993 115.402914,21.6507715 113.954999,20.4305159 C112.507083,19.2102602 111.783126,17.2250682 111.783126,14.4749397 C111.783126,11.8978326 112.436509,9.921747 113.743275,8.54668279 C115.050041,7.17161858 116.746106,6.48408648 118.831468,6.48408648 Z M118.831468,9.69408736 C117.929936,9.69408736 117.231021,9.97638531 116.734723,10.5409812 C116.238425,11.1055771 115.926531,11.8705135 115.799042,12.8357904 L115.799042,12.8357904 L121.850235,12.8357904 C121.78649,11.8067688 121.474596,11.0258962 120.914554,10.4931727 C120.354511,9.96044914 119.660149,9.69408736 118.831468,9.69408736 Z" id="Combined-Shape-Copy-2" fill="#FFFFFF" fill-rule="nonzero"></path>
                <path d="M42.650368,2.84503261 C43.6720277,2.5761748 44.7962532,2.69706702 45.7808848,3.27143548 C46.3959696,3.63023495 46.9077798,4.14204508 47.2665792,4.75712989 L47.2665792,4.75712989 L56.6704418,20.8780371 C57.2448103,21.8626688 57.3657025,22.9868942 57.0968447,24.0085539 C56.8279869,25.0302136 56.169379,25.9493075 55.1847474,26.5236759 C54.5534296,26.8919446 53.8356541,27.0859946 53.1047752,27.0859946 L53.1047752,27.0859946 L34.2970501,27.0859946 C33.1571384,27.0859946 32.1251421,26.6239541 31.3781237,25.8769357 C30.6311053,25.1299173 30.1690648,24.097921 30.1690648,22.9580093 C30.1690648,22.2271304 30.3631148,21.5093549 30.7313835,20.8780371 L30.7313835,20.8780371 L40.135246,4.75712989 C40.7096145,3.77249825 41.6287084,3.11389042 42.650368,2.84503261 Z" id="Triangle-Copy-10" stroke="#FFFFFF" stroke-width="3.78" transform="translate(43.700913, 13.795757) rotate(-270.000000) translate(-43.700913, -13.795757) "></path>
            </g>
        </g>
    </g>
</svg>