<?xml version="1.0" encoding="UTF-8"?>
<svg width="668px" height="906px" viewBox="0 0 668 906" version="1.1" xmlns="http://www.w3.org/2000/svg" xmlns:xlink="http://www.w3.org/1999/xlink">
    <title>galleryCat Copy 28</title>
    <defs>
        <linearGradient x1="50.8584156%" y1="9.34442759%" x2="43.5798525%" y2="39.9620994%" id="linearGradient-1">
            <stop stop-color="#A0A5AC" stop-opacity="0.575092876" offset="0%"></stop>
            <stop stop-color="#000000" stop-opacity="0.97418597" offset="100%"></stop>
        </linearGradient>
    </defs>
    <g id="Page-1" stroke="none" stroke-width="1" fill="none" fill-rule="evenodd">
        <polygon id="Path-6" fill="url(#linearGradient-1)" opacity="0.805640811" style="mix-blend-mode: multiply;" points="0 0 7.53216933e-15 906 266 191 243 120 442 0"></polygon>
        <polyline id="Path-9-Copy" stroke="#FFFFFF" stroke-width="12" opacity="0.699079241" points="-142 547 30 187 -22 37 109 -49"></polyline>
        <polyline id="Path-9" stroke="#FFFFFF" stroke-width="14" opacity="0.54422433" points="-103 547 69 187 22.5552968 54.9992646 161 -35"></polyline>
        <polyline id="Path-9-Copy-3" stroke="#FFFFFF" stroke-width="15" opacity="0.360584077" points="-30 479 111 187 69 70 247 -42"></polyline>
        <polyline id="Path-9-Copy-4" stroke="#FFFFFF" stroke-width="15" opacity="0.326241629" points="-15 547 157 187 120 87 304 -29"></polyline>
        <polyline id="Path-9-Copy-5" stroke="#FFFFFF" stroke-width="15" opacity="0.23265439" points="-15 652 208 187 175 103 369 -19"></polyline>
        <polyline id="Path-9-Copy-5" stroke="#FFFFFF" stroke-width="16" opacity="0.145647321" points="-51 838 261 187 235 118 463 -24"></polyline>
    </g>
</svg>