<?xml version="1.0" encoding="UTF-8"?>
<svg width="71px" height="71px" viewBox="0 0 71 71" version="1.1" xmlns="http://www.w3.org/2000/svg" xmlns:xlink="http://www.w3.org/1999/xlink">
    <title>Group 3</title>
    <g id="Page-1" stroke="none" stroke-width="1" fill="none" fill-rule="evenodd" opacity="0.8">
        <g id="galleryCat-Copy-14" transform="translate(-45.000000, -287.000000)">
            <g id="Group-3" transform="translate(45.000000, 287.000000)">
                <rect id="Rectangle-Copy" stroke="#FFFFFF" x="0.5" y="0.5" width="69.08" height="69.08" rx="17.28"></rect>
                <path d="M41.2886549,22 C42.2390234,22 43.0264715,22.8024325 42.9993181,23.7708854 C42.9993181,24.2412769 42.8092444,24.6839982 42.4834038,25.0160392 L32.2465779,35.0049398 L42.4834038,44.9938404 C43.1622384,45.6855925 43.135085,46.7923959 42.4562504,47.484148 C41.8045692,48.1482301 40.7727406,48.1759002 40.0667526,47.5394882 L28.5265643,36.2777637 C27.8477297,35.6136817 27.8205763,34.4792082 28.4722575,33.7874561 C28.4994109,33.759786 28.4994109,33.759786 28.5265643,33.7321159 L40.0667526,22.4980615 C40.3925932,22.1660205 40.8270474,22 41.2886549,22 Z" id="Path-Copy" fill="#FFFFFF" fill-rule="nonzero" transform="translate(35.500000, 35.000000) scale(-1, 1) translate(-35.500000, -35.000000) "></path>
            </g>
        </g>
    </g>
</svg>