<?xml version="1.0" encoding="UTF-8"?>
<svg width="71px" height="71px" viewBox="0 0 71 71" version="1.1" xmlns="http://www.w3.org/2000/svg" xmlns:xlink="http://www.w3.org/1999/xlink">
    <title>Group 5</title>
    <g id="Page-1" stroke="none" stroke-width="1" fill="none" fill-rule="evenodd" opacity="0.8">
        <g id="galleryCat-Copy-14" transform="translate(-45.000000, -396.000000)">
            <g id="Group-5" transform="translate(45.000000, 396.000000)">
                <rect id="Rectangle-Copy-2" stroke-opacity="0.766990822" stroke="#FFFFFF" x="0.5" y="0.5" width="69.08" height="69.08" rx="17.28"></rect>
                <g id="Group" transform="translate(26.000000, 24.000000)" fill="#FFFFFF">
                    <path d="M2.83146067,8.17124146e-14 C1.23876404,8.17124146e-14 -1.58983937e-13,1.29775281 -1.58983937e-13,2.83146067 L-1.58983937e-13,20.2921348 C-1.58983937e-13,21.8848315 1.29775281,23.1235955 2.83146067,23.1235955 C4.36516854,23.1235955 5.66292135,21.8258427 5.66292135,20.2921348 L5.66292135,2.83146067 C5.66292135,1.23876404 4.36516854,8.17124146e-14 2.83146067,8.17124146e-14 Z" id="Path"></path>
                    <path d="M14.6292135,8.17124146e-14 C13.0365169,8.17124146e-14 11.7977528,1.29775281 11.7977528,2.83146067 L11.7977528,20.2921348 C11.7977528,21.8848315 13.0955056,23.1235955 14.6292135,23.1235955 C16.2219101,23.1235955 17.4606742,21.8258427 17.4606742,20.2921348 L17.4606742,2.83146067 C17.4606742,1.23876404 16.2219101,8.17124146e-14 14.6292135,8.17124146e-14 Z" id="Path"></path>
                </g>
            </g>
        </g>
    </g>
</svg>