<?xml version="1.0" encoding="UTF-8"?>
<svg width="71px" height="71px" viewBox="0 0 71 71" version="1.1" xmlns="http://www.w3.org/2000/svg" xmlns:xlink="http://www.w3.org/1999/xlink">
    <title>Group</title>
    <g id="Page-1" stroke="none" stroke-width="1" fill="none" fill-rule="evenodd" opacity="0.8">
        <g id="galleryCat-Copy-14" transform="translate(-45.000000, -189.000000)">
            <g id="Group" transform="translate(45.000000, 189.000000)">
                <rect id="Rectangle-Copy-2" stroke-opacity="0.766990822" stroke="#FFFFFF" x="0.5" y="0.5" width="69.08" height="69.08" rx="17.28"></rect>
                <path d="M40.0006483,30.2511345 L46.0453393,40.8293438 C46.9923178,42.4865561 46.4165595,44.5976698 44.7593472,45.5446483 C44.2371536,45.8430447 43.6461281,46 43.044691,46 L30.955309,46 C29.0466129,46 27.499309,44.4526961 27.499309,42.544 C27.499309,41.9425629 27.6562643,41.3515375 27.9546607,40.8293438 L33.9993517,30.2511345 C34.9463302,28.5939222 37.0574439,28.0181639 38.7146562,28.9651424 C39.2504443,29.271307 39.6944837,29.7153464 40.0006483,30.2511345 Z" id="Triangle-Copy" fill="#FFFFFF" transform="translate(37.000000, 35.500000) rotate(-270.000000) translate(-37.000000, -35.500000) "></path>
            </g>
        </g>
    </g>
</svg>